<svg xmlns="http://www.w3.org/2000/svg" version="1.1" viewBox="-5.0 -10.0 110.0 135.0">
 <path d="m50 1c13.531 0 25.781 5.4844 34.648 14.352 8.8672 8.8672 14.352 21.117 14.352 34.648s-5.4844 25.781-14.352 34.648c-8.8672 8.8672-21.117 14.352-34.648 14.352s-25.781-5.4844-34.648-14.352c-8.8672-8.8672-14.352-21.117-14.352-34.648s5.4844-25.781 14.352-34.648c8.8672-8.8672 21.117-14.352 34.648-14.352zm15.199 52.527c-0.75781 0.75781-1.5664 1.4531-2.4258 2.0898 1.875 0.41797 3.6289 1.1641 5.1914 2.1992 2.5156 1.6602 4.5391 4.0625 5.8086 7.0312l7.2383 16.934c0.12891-0.125 0.25781-0.25391 0.38672-0.38281 8.0352-8.0352 13.004-19.141 13.004-31.402 0-12.266-4.9727-23.363-13.004-31.402-8.0352-8.0352-19.137-13.004-31.402-13.004s-23.363 4.9727-31.402 13.004c-8.0352 8.0352-13.004 19.137-13.004 31.402 0 12.262 4.9727 23.363 13.004 31.402 0.12891 0.12891 0.25391 0.25391 0.38672 0.38281l7.2383-16.934c1.2695-2.9727 3.293-5.375 5.8086-7.0312 1.5664-1.0352 3.3164-1.7812 5.1914-2.1992-0.85938-0.63672-1.6719-1.332-2.4258-2.0898-3.8867-3.8906-6.2969-9.2656-6.2969-15.199s2.4062-11.309 6.2969-15.199c3.8867-3.8867 9.2656-6.293 15.199-6.293 5.9336 0 11.309 2.4062 15.199 6.293 3.8867 3.8906 6.2969 9.2656 6.2969 15.199s-2.4062 11.309-6.2969 15.199z"/>
<text x="0.0" y="117.5" font-size="5.0" font-weight="bold" font-family="Arbeit Regular, Helvetica, Arial-Unicode, Arial, Sans-serif" fill="#000000">Created by ARISO</text><text x="0.0" y="122.5" font-size="5.0" font-weight="bold" font-family="Arbeit Regular, Helvetica, Arial-Unicode, Arial, Sans-serif" fill="#000000">from Noun Project</text></svg>