<svg xmlns="http://www.w3.org/2000/svg" version="1.1" viewBox="-5.0 -10.0 110.0 135.0">
 <g>
  <path d="m34.754 26.52c7.7812 0.27734 13.867 6.8086 13.59 14.594-0.28125 7.7812-6.8125 13.867-14.598 13.586-7.7812-0.27734-13.863-6.8086-13.586-14.594 0.27734-7.7812 6.8086-13.863 14.594-13.586"/>
  <path d="m65.801 15.602c-7.8008 0-14.102 6.3008-14.102 14.102s6.3008 14.102 14.102 14.102 14.102-6.3008 14.102-14.102c-0.003906-7.8047-6.3008-14.102-14.102-14.102z"/>
  <path d="m88.602 73.5c0.39844 0 0.69922-0.19922 1-0.39844 0.30078-0.30078 0.39844-0.69922 0.39844-1.1016-1.3008-13.602-11.699-24-24.199-24-7.8984 0-15.102 4.1992-19.699 11.102 5.6992 3 10.199 8.1016 12.801 14.398z"/>
  <path d="m10 82.801c0 0.39844 0.10156 0.80078 0.39844 1.1016 0.19922 0.30078 0.60156 0.5 1 0.5h45.699c0.39844 0 0.80078-0.19922 1-0.5 0.30078-0.30078 0.39844-0.69922 0.39844-1.1016-0.30078-2.6016-0.80078-5-1.6992-7.3008-0.10156-0.10156-0.10156-0.19922-0.10156-0.30078-2.5-6.6016-7.3008-11.699-13.102-14.398-0.10156 0-0.10156 0-0.10156-0.10156-2.8984-1.3008-5.8984-2-9.1992-2-12.492 0.10156-22.992 10.5-24.293 24.102z"/>
 </g>
<text x="0.0" y="117.5" font-size="5.0" font-weight="bold" font-family="Arbeit Regular, Helvetica, Arial-Unicode, Arial, Sans-serif" fill="#000000">Created by NAPISAH</text><text x="0.0" y="122.5" font-size="5.0" font-weight="bold" font-family="Arbeit Regular, Helvetica, Arial-Unicode, Arial, Sans-serif" fill="#000000">from Noun Project</text></svg>