<svg xmlns="http://www.w3.org/2000/svg" version="1.1" viewBox="-5.0 -10.0 110.0 135.0">
 <path d="m72.051 49.891-21-21c-0.28516-0.28516-0.66797-0.44531-1.0703-0.44531-0.40234 0-0.78516 0.16016-1.0703 0.44531l-21 21c-0.44141 0.43359-0.57031 1.0938-0.33203 1.668 0.23828 0.57031 0.80078 0.94141 1.4219 0.92969h3.5508v17.512c0 0.83984 0.67969 1.5195 1.5195 1.5195h8c0.83594-0.003906 1.5078-0.68359 1.5078-1.5195v-13.191c0-0.83984 0.68359-1.5195 1.5234-1.5195h9.8008-0.003906c0.83984 0 1.5234 0.67969 1.5234 1.5195v13.191c0 0.83984 0.67969 1.5195 1.5195 1.5195h8c0.82812-0.015625 1.4883-0.69141 1.4883-1.5195v-17.512h3.5703c0.61328-0.007812 1.1602-0.38281 1.3906-0.94922 0.23047-0.56641 0.09375-1.2188-0.33984-1.6484z"/>
<text x="0.0" y="117.5" font-size="5.0" font-weight="bold" font-family="Arbeit Regular, Helvetica, Arial-Unicode, Arial, Sans-serif" fill="#000000">Created by Oh Rian</text><text x="0.0" y="122.5" font-size="5.0" font-weight="bold" font-family="Arbeit Regular, Helvetica, Arial-Unicode, Arial, Sans-serif" fill="#000000">from Noun Project</text></svg>