<svg xmlns="http://www.w3.org/2000/svg" version="1.1" viewBox="-5.0 -10.0 110.0 135.0">
 <g>
  <path d="m27.656 91.875-7.6562 7.6562c-0.625 0.625-1.7188 0.625-2.3438 0l-17.188-17.188c-0.625-0.625-0.625-1.7188 0-2.3438l7.6562-7.6562z"/>
  <path d="m44.219 89.688-5.1562 5.1562c-1.0938 1.0938-2.9688 1.0938-4.0625 0l-4.0625-4.0625-21.562-21.719-4.0625-4.0625c-0.46875-0.46875-0.78125-1.25-0.78125-2.0312s0.3125-1.4062 0.78125-2.0312l5.1562-5.1562c0.625-0.625 1.25-0.78125 2.0312-0.78125s1.4062 0.3125 2.0312 0.78125l29.844 29.844c0.9375 1.0938 0.9375 2.9688-0.15625 4.0625z"/>
  <path d="m72.5 35.625-36.875 36.875-8.4375-8.4375 36.875-36.875z"/>
  <path d="m94.844 39.062-5.1562 5.1562c-1.0938 1.0938-2.9688 1.0938-4.0625 0l-9.6875-9.6875v-0.15625h-0.15625l-10.625-10.625v-0.15625h-0.15625l-9.375-9.375c-1.0938-1.0938-1.0938-2.9688 0-4.0625l5.3125-5c0.625-0.625 1.25-0.78125 2.0312-0.78125s1.4062 0.3125 2.0312 0.78125l4.0625 4.0625 21.562 21.719 4.0625 4.0625c1.25 1.25 1.25 2.9688 0.15625 4.0625z"/>
  <path d="m100 18.75c0 0.46875-0.15625 0.78125-0.46875 1.0938l-7.6562 7.6562-19.531-19.375 7.6562-7.6562c0.3125-0.3125 0.78125-0.46875 1.25-0.46875s0.78125 0.15625 1.0938 0.46875l17.188 17.188c0.3125 0.3125 0.46875 0.78125 0.46875 1.0938z"/>
 </g>
<text x="0.0" y="117.5" font-size="5.0" font-weight="bold" font-family="Arbeit Regular, Helvetica, Arial-Unicode, Arial, Sans-serif" fill="#000000">Created by Haider Ali</text><text x="0.0" y="122.5" font-size="5.0" font-weight="bold" font-family="Arbeit Regular, Helvetica, Arial-Unicode, Arial, Sans-serif" fill="#000000">from Noun Project</text></svg>